<svg width="568.3" height="150.8" xmlns="http://www.w3.org/2000/svg">
 <style type="text/css">.st0{fill:#FFFFFF;}</style>

 <g>
  <title>background</title>
  <rect fill="none" id="canvas_background" height="152.8" width="570.3" y="-1" x="-1"/>
 </g>
 <g>
  <title>Layer 1</title>
<!--  <rect stroke="#000" transform="rotate(45 449.9922790527344,42.88196945190435) " id="svg_28" height="228.504336" width="106.120452" y="-71.370192" x="396.932061" stroke-opacity="null" stroke-width="0" fill="#002147"/>-->
  <polygon id="svg_28" stroke="#000" fill="#002147" stroke-width="0" stroke-opacity="null" points="415,0 417.3,0 568.3,0 417.3,150.8 415,150.8"  />
  <rect stroke="#000" id="svg_25" height="150.8" width="417.5" y="0" x="0" stroke-opacity="null" stroke-width="0" fill="#002147"/>
  <path id="svg_1" d="m28.4,68.2l0,-37.9l7.4,0l0,37.9l-7.4,0z" class="st0"/>
  <path id="svg_2" d="m46.7,44.3l0.1,0c1.8,-2.4 5.2,-3.8 8.3,-3.8c3.3,0 6.2,1.4 7.8,3.8c2.2,-2.2 5.6,-3.8 8.8,-3.8c6,-0.1 9.1,3.7 9.2,9.9l0,17.8l-7,0l0,-16.5c0,-3.1 -1.1,-6.4 -4.5,-6.4c-3.4,0 -5.5,2.1 -5.5,6.8l0,16.2l-7,0l0,-16.6c0,-3.8 -1.6,-6.4 -4.6,-6.4c-3.3,0 -5.4,2.3 -5.4,6.9l0,16l-7,0l0,-27.1l7,0l0,3.2l-0.2,0z" class="st0"/>
  <path id="svg_3" d="m98.5,44.8c4,0 6,4.7 6,9.3c0,4.8 -1.6,10.4 -6.3,10.4c-3.8,0 -6.5,-3.8 -6.5,-9.5c0,-6.2 2.4,-10.2 6.8,-10.2zm-6.8,-3.7l-7,0l0,40.7l7,0l0,-16.9c2,2.4 4.7,4 7.9,4c7.5,0 12.3,-7.6 12.3,-14.8c0,-6 -3.4,-13.6 -11.7,-13.6c-3.2,0 -6.6,1.6 -8.4,4.4l-0.1,0l0,-3.8z" class="st0"/>
  <path id="svg_4" d="m122,51.4c-0.1,-3.6 1.7,-6.9 5.8,-6.9c3.5,0 4.9,2.8 4.6,6.9l-10.4,0zm17,3.9c0.5,-8.1 -2.9,-14.8 -11.1,-14.8c-7.5,0 -13.5,5.3 -13.5,13.7c0,8.9 6,14.7 13.9,14.7c3,0 6.8,-0.9 10.3,-3l-2,-3.8c-1.7,1.2 -4.5,2.2 -7.1,2.2c-4.4,0 -7.9,-3.8 -7.7,-8.9l17.2,0l0,-0.1z" class="st0"/>
  <path id="svg_5" d="m149.4,45.9l0.1,0l1.4,-2.1c0.8,-1.1 2.4,-3.3 4.5,-3.3c1.6,0 3.3,0.9 4.8,2.4l-2.6,5c-1.2,-0.6 -1.9,-0.9 -3.3,-0.9c-2.4,0 -4.8,2 -4.8,7.9l0,13.4l-7,0l0,-27.2l7,0l0,4.8l-0.1,0z" class="st0"/>
  <path id="svg_6" d="m169.4,41.1l0,27.1l-7,0l0,-27.1l7,0zm-7.7,-8.1c0,-2.1 1.7,-4.2 4.1,-4.2c2.4,0 4.3,2.1 4.3,4.2c0,2.3 -1.6,4.5 -4.2,4.5c-2.5,0 -4.2,-2.2 -4.2,-4.5z" class="st0"/>
  <path id="svg_7" d="m188.5,52.5c0.5,8 -3.1,11.5 -5.9,11.5c-1.7,0 -3.2,-1.6 -3.2,-4c0,-3.1 1.7,-5.1 5.2,-6.2l3.9,-1.3zm-0.1,11.8c0,1.5 0.2,3 0.7,4l7.4,0c-0.8,-1.9 -1.1,-4.4 -1.1,-6.6l0,-11.2c0,-8.5 -6,-10.1 -10.8,-10.1c-3.6,0 -6.9,0.9 -10.1,3.7l2.3,3.4c1.8,-1.6 4,-2.8 7,-2.8c2.3,0 4.4,1.6 4.8,4.1l-6.2,1.9c-6.1,1.8 -9.8,4.7 -9.8,9.9c0,5 3.4,8.2 7.5,8.2c2.4,0 4.8,-1.7 6.8,-3.3l1.5,-1.2z" class="st0"/>
  <path id="svg_8" d="m199.8,68.2l0,-39.8l7,0l0,39.8l-7,0z" class="st0"/>
  <path id="svg_9" d="m253.1,37.2c-1.8,-1 -4.8,-2.1 -7.7,-2.1c-7.6,0 -13.1,5.5 -13.1,14.1c0,9 6.1,14.3 13.3,14.3c2.9,0 5.5,-0.8 7.4,-1.9l2.1,4.7c-2.3,1.4 -6.2,2.6 -9.8,2.6c-12.8,0 -20.9,-8.7 -20.9,-19.8c0,-10.4 8,-19.4 21,-19.4c3.9,0 7.4,1.4 10,2.9l-2.3,4.6z" class="st0"/>
  <path id="svg_10" d="m269.1,64.9c-5,0 -6.4,-5.7 -6.4,-10.5c0,-4.5 1.6,-9.9 6.4,-9.9c4.9,0 6.4,5.4 6.4,9.9c0,4.7 -1.3,10.5 -6.4,10.5zm0,4c8.3,0 13.9,-6.1 13.9,-14.5c0,-8.8 -6.7,-13.9 -13.9,-13.9c-7.1,0 -13.8,5.1 -13.8,13.9c-0.1,8.3 5.5,14.5 13.8,14.5z" class="st0"/>
  <path id="svg_11" d="m286,68.2l0,-39.8l7,0l0,39.8l-7,0z" class="st0"/>
  <path id="svg_12" d="m297.4,68.2l0,-39.8l7,0l0,39.8l-7,0z" class="st0"/>
  <path id="svg_13" d="m314.9,51.4c-0.1,-3.6 1.7,-6.9 5.7,-6.9c3.5,0 4.9,2.8 4.6,6.9l-10.3,0zm17,3.9c0.5,-8.1 -2.9,-14.8 -11.1,-14.8c-7.5,0 -13.5,5.3 -13.5,13.7c0,8.9 6,14.7 13.9,14.7c3,0 6.8,-0.9 10.3,-3l-2,-3.8c-1.7,1.2 -4.5,2.2 -7.1,2.2c-4.4,0 -7.9,-3.8 -7.7,-8.9l17.2,0l0,-0.1z" class="st0"/>
  <path id="svg_14" d="m372.2,51.4c-0.1,-3.6 1.7,-6.9 5.8,-6.9c3.5,0 4.9,2.8 4.6,6.9l-10.4,0zm17,3.9c0.5,-8.1 -2.9,-14.8 -11.1,-14.8c-7.5,0 -13.5,5.3 -13.5,13.7c0,8.9 6,14.7 13.9,14.7c3,0 6.8,-0.9 10.3,-3l-2,-3.8c-1.7,1.2 -4.5,2.2 -7.1,2.2c-4.4,0 -7.9,-3.8 -7.7,-8.9l17.2,0l0,-0.1z" class="st0"/>
  <path id="svg_15" d="m348.3,44.8c4.2,0 6.4,4.4 6.4,9.1c0,5.4 -2,10.6 -6.7,10.6c-4.1,0 -6.1,-5.1 -6.1,-10.4c0,-5.2 1.9,-9.3 6.4,-9.3zm13.4,-3.7l-7,0l0,3.3l-0.1,0c-1.5,-2.4 -4.6,-4 -7.9,-4c-7.2,0 -12.2,6.8 -12.2,13.9c0,8.7 4.6,14.5 11.6,14.5c4,0 6.8,-2.3 8.5,-4.6l0.1,0l0,3.6c0,6.3 -3.6,9.2 -8.2,9.2c-3.6,0 -6.6,-0.7 -9.2,-2.3l-1.4,4.4c3.1,1.6 7.1,2.6 11.1,2.6c7.9,0 14.7,-4 14.7,-16l0,-24.6z" class="st0"/>
  <path id="svg_16" d="m28.4,84.5l7.5,0l0,32.8l15.8,0l0,5.1l-23.3,0l0,-37.9z" class="st0"/>
  <path id="svg_17" d="m92.8,98.5c2.5,-2.6 6,-3.8 9.5,-3.8c6.5,0 9.6,3.5 9.6,10.3l0,17.5l-7.1,0l0,-16.6c0,-3.8 -1.7,-6.3 -5.6,-6.3c-3.6,0 -6.4,2.3 -6.4,6.8l0,16.2l-7.1,0l0,-27.3l7,0l0,3.2l0.1,0z" class="st0"/>
  <path id="svg_18" d="m130.2,99c4.4,0 6.7,4.4 6.7,9.1c0,5.4 -2.1,10.6 -7.1,10.6c-4.3,0 -6.4,-5.1 -6.4,-10.4c0,-5.2 2,-9.3 6.8,-9.3zm6.7,23.4l7.1,0l0,-39.8l-7.1,0l0,15.9l-0.1,0c-1.7,-2.4 -4.9,-3.8 -8.5,-3.8c-7.4,0 -12.7,6.8 -12.7,13.9c0,8.7 4.8,14.5 12.1,14.5c4.3,0 7.2,-2.3 9,-4.6l0.1,0l0,3.9l0.1,0z" class="st0"/>
  <path id="svg_19" d="m162.3,119.1c-5.3,0 -6.7,-5.7 -6.7,-10.5c0,-4.5 1.7,-9.9 6.7,-9.9c5.2,0 6.8,5.4 6.8,9.9c-0.1,4.7 -1.5,10.5 -6.8,10.5zm0,4c8.7,0 14.6,-6.1 14.6,-14.5c0,-8.8 -7.1,-13.9 -14.6,-13.9c-7.4,0 -14.5,5.1 -14.5,13.9c-0.1,8.3 5.8,14.5 14.5,14.5z" class="st0"/>
  <path id="svg_20" d="m187.7,98.5c2.5,-2.6 6,-3.8 9.5,-3.8c6.5,0 9.6,3.5 9.6,10.3l0,17.5l-7.1,0l0,-16.6c0,-3.8 -1.7,-6.3 -5.6,-6.3c-3.6,0 -6.4,2.3 -6.4,6.8l0,16.2l-7.1,0l0,-27.3l7,0l0,3.2l0.1,0z" class="st0"/>
  <path id="svg_21" d="m67.2,119.1c-5.3,0 -6.7,-5.7 -6.7,-10.5c0,-4.5 1.7,-9.9 6.7,-9.9c5.2,0 6.8,5.4 6.8,9.9c0,4.7 -1.4,10.5 -6.8,10.5zm0,4c8.7,0 14.6,-6.1 14.6,-14.5c0,-8.8 -7.1,-13.9 -14.6,-13.9c-7.4,0 -14.5,5.1 -14.5,13.9c0,8.3 5.9,14.5 14.5,14.5z" class="st0"/>
 </g>
</svg>